<?xml version="1.0" encoding="utf-8"?>
<!-- Designed by Vexels.com - 2020 All Rights Reserved - https://vexels.com/terms-and-conditions/  -->
<svg version="1.1" id="Layer_1" xmlns="http://www.w3.org/2000/svg" xmlns:xlink="http://www.w3.org/1999/xlink" x="0px" y="0px"
	 viewBox="0 0 1200 1200" enable-background="new 0 0 1200 1200" xml:space="preserve">
<g>
	<path fill="#652B91" d="M901.391,122.071c-1.946-11.647-8.134-22.806-18.564-33.488c-10.443-10.67-26.698-19.769-48.777-27.3
		C811.96,53.765,781.02,50,741.23,50c-35.922,0-71.833,2.798-107.743,8.372c-35.922,5.585-70.375,13.957-103.375,25.115
		c-33.01,11.17-63.699,25.116-92.091,41.86s-53.144,36.285-74.256,58.603c-21.112,22.329-37.743,47.445-49.867,75.348
		c-12.137,27.914-18.2,58.603-18.2,92.091c0,21.362,3.39,41.496,10.192,60.424c6.792,18.927,16.745,35.433,29.848,49.504
		c13.105,14.082,28.996,25.115,47.685,33.123c18.678,8.008,39.676,12.012,62.972,12.012c15.038,0,30.211-2.297,45.499-6.916
		c15.289-4.607,28.869-11.648,40.768-21.112c11.888-9.464,21.589-21.226,29.121-35.308c7.519-14.07,11.284-30.814,11.284-50.232
		c0-13.581-1.946-25.115-5.824-34.58c-3.89-9.464-8.622-17.107-14.195-22.932c-5.586-5.824-11.649-10.067-18.2-12.739
		c-6.552-2.662-12.74-4.004-18.564-4.004c-7.28,0-13.718,2.071-19.293,6.188c-5.584,4.129-11.534,8.497-17.835,13.105
		c-6.313,4.618-13.354,8.986-21.112,13.104c-7.769,4.128-17.721,6.188-29.848,6.188c-2.434,0-6.438-0.603-12.012-1.82
		c-5.584-1.206-11.045-4.118-16.38-8.736c-5.346-4.607-10.078-11.523-14.195-20.748c-4.13-9.213-6.188-21.589-6.188-37.128
		c0-17.949,4.367-34.693,13.103-50.232c8.736-15.527,20.02-29.597,33.851-42.224c13.833-12.615,29.598-23.898,47.321-33.851
		c17.71-9.942,35.307-18.314,52.779-25.116c17.472-6.791,34.091-11.887,49.867-15.288c15.766-3.39,28.996-5.096,39.676-5.096
		c7.28,0,13.947,0.614,20.021,1.82c6.062,1.217,11.284,3.64,15.651,7.28c4.369,3.64,7.758,8.622,10.192,14.924
		c2.423,6.313,3.64,14.81,3.64,25.48v876.506c0,37.378,9.703,64.552,29.121,81.536c19.405,16.982,49.504,25.479,90.272,25.479
		c40.278,0,70.25-8.497,89.907-25.479c19.656-16.983,29.484-44.158,29.484-81.536v-18.109V813.275V605.005v-208.27V186.8v-35.609
		C904.302,143.434,903.324,133.719,901.391,122.071z"/>
	<g>
		
			<rect x="739.582" y="766.852" transform="matrix(0.7071 -0.7071 0.7071 0.7071 -344.8566 793.9922)" fill="#FBBB02" width="92.846" height="92.846"/>
		
			<rect x="739.582" y="978.454" transform="matrix(0.7071 -0.7071 0.7071 0.7071 -494.4816 855.9689)" fill="#FBBB02" width="92.846" height="92.846"/>
		
			<rect x="739.582" y="558.583" transform="matrix(0.7071 -0.7071 0.7071 0.7071 -197.5883 732.9885)" fill="#FBBB02" width="92.846" height="92.846"/>
		
			<rect x="739.582" y="140.378" transform="matrix(0.7071 -0.7071 0.7071 0.7071 98.1277 610.5021)" fill="#FBBB02" width="92.846" height="92.846"/>
		
			<rect x="739.582" y="350.313" transform="matrix(0.7071 -0.7071 0.7071 0.7071 -50.319 671.9907)" fill="#FBBB02" width="92.846" height="92.846"/>
	</g>
	<g>
		<polygon fill="#ED5079" points="702.745,778.238 771.843,709.14 702.745,640.042 		"/>
		<polygon fill="#ED5079" points="867.076,987.651 867.076,850.501 798.501,919.076 		"/>
		<polygon fill="#ED5079" points="800.167,500.871 867.076,567.779 867.076,433.962 		"/>
		<polygon fill="#ED5079" points="702.745,361.699 772.676,291.768 702.745,221.837 		"/>
		<path fill="#ED5079" d="M864.667,128.166c-0.814-4.876-5.059-10.077-8.474-13.575c-3.506-3.582-12.649-10.738-34.159-18.074
			c-2.992-1.018-6.669-2.084-11.13-3.116l56.15,56.151C866.945,145.417,866.406,138.641,864.667,128.166z"/>
		<path fill="#ED5079" d="M719.147,1096.501c7.503,6.567,19.038,11.215,34.005,13.82l-49.379-49.379
			C705.833,1077.433,710.979,1089.357,719.147,1096.501z"/>
	</g>
	<g>
		<polygon fill="#01A99E" points="702.745,989.84 773.509,919.076 702.745,848.312 		"/>
		<polygon fill="#01A99E" points="799.334,291.768 867.076,359.51 867.076,224.026 		"/>
		<polygon fill="#01A99E" points="867.076,776.049 867.076,642.231 800.167,709.14 		"/>
		<polygon fill="#01A99E" points="702.745,569.969 771.843,500.871 702.745,431.773 		"/>
		<path fill="#01A99E" d="M526.148,361.11c-1.891-1.972-3.706-3.331-5.365-4.007c-1.522-0.618-2.636-0.93-3.376-1.087
			c-4.85,3.581-10.201,7.511-16.285,11.959c-7.696,5.63-16.321,10.992-25.627,15.932c-13.148,6.987-29.068,10.534-47.303,10.534
			c-5.306,0-11.44-0.821-19.886-2.662c-11.729-2.536-22.788-8.247-32.87-16.974c-9.576-8.254-17.388-19.301-23.825-33.721
			c-6.248-13.937-9.338-30.8-9.419-51.475c-6.158,19.017-9.27,39.724-9.27,61.782c0,16.971,2.691,33.065,7.999,47.836
			c5.122,14.275,12.336,26.283,22.058,36.723c9.619,10.337,21.099,18.275,35.103,24.275c13.936,5.975,30.188,9.003,48.31,9.003
			c11.351,0,23.037-1.792,34.733-5.325c10.832-3.263,20.1-8.04,28.361-14.611c7.936-6.318,14.308-14.084,19.467-23.73
			c4.565-8.544,6.884-19.542,6.884-32.675c0-10.774-1.655-17.075-3.044-20.464C530.197,366.102,527.745,362.779,526.148,361.11z"/>
		<path fill="#01A99E" d="M850.482,1096.352c7.809-6.747,12.873-17.762,15.167-32.822l-46.176,46.176
			C832.857,1106.991,843.357,1102.507,850.482,1096.352z"/>
		<path fill="#01A99E" d="M741.23,87.226c-24.565,0-49.414,1.41-74.176,4.202c2.961,1.799,5.786,3.818,8.468,6.054
			c9.248,7.705,16.343,17.835,21.082,30.105c2.805,7.309,4.604,15.521,5.488,24.83l64.566-64.566
			C759.024,87.454,750.581,87.226,741.23,87.226z"/>
	</g>
</g>
</svg>
